<?xml version="1.0" encoding="UTF-8"?>
<svg version="1.1" xmlns="http://www.w3.org/2000/svg" width="1024" height="217">
<path d="M0 0 C0.66032227 0.33217529 1.32064453 0.66435059 2.00097656 1.0065918 C5.95866513 3.02184239 9.86102441 5.11772296 13.74609375 7.26953125 C29.82931513 15.97404005 46.25560682 20.76157001 63.81738281 25.42236328 C68.33873277 26.62778603 72.84013534 27.87376818 77.3125 29.25 C77.99473633 29.45939209 78.67697266 29.66878418 79.37988281 29.88452148 C84.5442861 31.56219343 89.52437953 33.61778418 94.5234375 35.7265625 C95.23226578 36.02340439 95.94109406 36.32024628 96.67140198 36.62608337 C100.24089481 38.12288001 103.79690124 39.64242202 107.33666992 41.20825195 C115.45827053 44.71870115 121.9901237 46.90469582 130.63208008 43.69116211 C132.54646613 42.84046003 134.39231618 41.90513458 136.25 40.9375 C141.86783218 38.22509642 146.51198331 36.9349153 152.75 36.875 C160.14832554 36.7586055 164.97840148 35.01229517 171.44140625 31.71484375 C175.07862247 30.25549442 177.73925452 30.14077035 181.625 30.4375 C182.285 30.7675 182.945 31.0975 183.625 31.4375 C187.43198866 31.66591932 190.44966463 31.4868985 194.1328125 30.44921875 C199.51686161 29.06008693 204.84028322 29.05483301 210.375 29.0625 C212.01686279 29.0627417 212.01686279 29.0627417 213.69189453 29.06298828 C224.01559304 29.20539446 233.62913951 31.01031954 243.625 33.4375 C250.8592957 35.09956263 257.78884392 35.5812321 265.1875 35.8125 C271.96116354 36.02585301 277.29824777 36.54167163 283.44921875 39.58984375 C286.9031072 40.93543404 290.20233008 40.59253387 293.859375 40.46484375 C300.68180671 40.39739033 306.97233595 42.17652865 313.38623047 44.36816406 C325.58336011 48.49678067 336.51865801 47.8545982 349.15234375 45.875 C356.49651202 44.94975045 362.37150198 45.93337725 369.40234375 47.88671875 C371.38449399 48.4118337 373.3669275 48.93588031 375.34960938 49.45898438 C378.39782859 50.27224114 381.44351812 51.09208039 384.48413086 51.93334961 C405.54852873 57.72840502 425.51882191 59.67422774 447.625 62.4375 C447.625 101.3775 447.625 140.3175 447.625 180.4375 C109.705 180.4375 -228.215 180.4375 -576.375 180.4375 C-576.375 144.4675 -576.375 108.4975 -576.375 71.4375 C-559.18194804 70.74977792 -542.01643698 70.19166396 -524.81738281 69.88525391 C-496.71944448 69.53994008 -496.71944448 69.53994008 -468.75 67.125 C-467.20155396 66.93260742 -467.20155396 66.93260742 -465.62182617 66.73632812 C-458.06124842 65.7566509 -450.60080872 64.42991707 -443.12988281 62.92089844 C-435.84956737 61.46594812 -428.54642038 60.45064089 -421.18286133 59.51831055 C-415.98626368 58.84585329 -410.9743485 57.94918745 -405.875 56.75 C-389.7849303 53.44143588 -372.85032225 55.5843899 -356.57983398 56.5776062 C-347.42846451 57.1341051 -338.29667959 57.64770963 -329.125 57.6875 C-328.33673828 57.69652344 -327.54847656 57.70554687 -326.73632812 57.71484375 C-309.91649216 57.62968002 -293.91523961 53.02799742 -277.75 48.875 C-274.19354244 47.96962793 -270.63649621 47.06660624 -267.07925415 46.1643219 C-264.8805586 45.60573853 -262.68243023 45.04491647 -260.48495483 44.48155212 C-259.49266876 44.22781326 -258.50038269 43.9740744 -257.47802734 43.71264648 C-256.61059906 43.4899559 -255.74317078 43.26726532 -254.84945679 43.03782654 C-250.88687849 42.0764677 -247.25474846 41.29777907 -243.16503906 41.43505859 C-242.36430466 41.45742584 -241.56357025 41.47979309 -240.73857117 41.50283813 C-239.88124893 41.53026093 -239.0239267 41.55768372 -238.140625 41.5859375 C-217.95479683 42.0498604 -200.27773921 42.10521175 -181.06152344 35.30078125 C-175.70088214 33.57820513 -170.1585763 32.71841505 -164.61938477 31.76855469 C-160.2406371 31.00861049 -155.98012107 30.09269553 -151.68359375 28.94921875 C-143.56123093 26.86795636 -135.29218031 26.02427858 -126.9765625 25.06445312 C-119.4943074 24.12127856 -113.22999671 22.53788326 -106.375 19.4375 C-105.07926133 18.93599053 -103.77856189 18.44706208 -102.47265625 17.97265625 C-101.50622192 17.61905029 -101.50622192 17.61905029 -100.52026367 17.25830078 C-99.48929565 16.88294189 -99.48929565 16.88294189 -98.4375 16.5 C-96.78893854 15.89486884 -95.14051339 15.28936627 -93.4921875 14.68359375 C-92.55084961 14.33796387 -91.60951172 13.99233398 -90.63964844 13.63623047 C-89.56231445 13.24064941 -88.48498047 12.84506836 -87.375 12.4375 C-86.74694458 12.20701965 -86.11888916 11.97653931 -85.47180176 11.73907471 C-81.10143175 10.13478657 -76.73270537 8.52611106 -72.3656311 6.91287231 C-70.83028614 6.34598542 -69.29462081 5.77996546 -67.75863647 5.21481323 C-60.29333972 2.46552655 -52.85680962 -0.30189578 -45.54296875 -3.4375 C-44.5475708 -3.86369629 -43.55217285 -4.28989258 -42.52661133 -4.72900391 C-40.74595398 -5.50401964 -38.97274188 -6.29651033 -37.2097168 -7.11083984 C-24.5200434 -12.65759619 -11.55501535 -5.81441051 0 0 Z " fill="#B8CBCB" transform="translate(576.375,36.5625)"/>
<path d="M0 0 C16.32866876 1.03259637 32.60542498 1.06771329 48.96115112 0.85787964 C45.99766683 2.83353583 45.2809474 3.12164823 41.94943237 3.27194214 C40.81344604 3.32994995 40.81344604 3.32994995 39.6545105 3.38912964 C38.8688269 3.42006714 38.08314331 3.45100464 37.27365112 3.48287964 C36.07772339 3.54088745 36.07772339 3.54088745 34.8576355 3.60006714 C32.89251637 3.69420458 30.92686572 3.77712596 28.96115112 3.85787964 C28.96115112 4.84787964 28.96115112 5.83787964 28.96115112 6.85787964 C26.47428906 7.92367766 24.19332127 8.81620807 21.52365112 9.29537964 C18.8559394 9.76101488 18.8559394 9.76101488 16.29318237 11.27194214 C12.6324907 13.01431121 9.01735478 13.92900891 5.08615112 14.79537964 C0.01130731 15.98675471 -4.61860221 17.28709943 -9.17947388 19.85006714 C-17.55796495 24.39135011 -27.4442526 28.05144393 -37.03421021 27.92379761 C-38.48776665 27.9091597 -38.48776665 27.9091597 -39.97068787 27.89422607 C-41.01025131 27.87965363 -42.04981476 27.86508118 -43.12088013 27.85006714 C-45.35590145 27.83252798 -47.59092781 27.81562194 -49.82595825 27.79928589 C-53.32309206 27.76855579 -56.81996756 27.73329968 -60.31692505 27.68649292 C-77.87043529 27.46415429 -93.01378886 28.68540281 -109.78884888 34.10787964 C-121.76250565 37.80314654 -133.91272621 40.14590748 -146.22537231 42.37252808 C-161.11682363 44.0908057 -161.11682363 44.0908057 -174.03884888 49.85787964 C-175.3624163 50.20945224 -176.69863602 50.51384187 -178.03884888 50.79537964 C-178.84322388 50.96811401 -179.64759888 51.14084839 -180.47634888 51.31881714 C-182.18468221 51.67819214 -183.89301554 52.03756714 -185.60134888 52.39694214 C-186.40572388 52.56967651 -187.21009888 52.74241089 -188.03884888 52.92037964 C-188.78134888 53.0763562 -189.52384888 53.23233276 -190.28884888 53.39303589 C-192.05326035 53.70499848 -192.05326035 53.70499848 -193.03884888 54.85787964 C-195.03210421 55.21085194 -197.03414566 55.51462838 -199.03884888 55.79537964 C-203.80638575 56.49140862 -208.46280508 57.32450979 -213.13650513 58.49069214 C-215.03884888 58.85787964 -215.03884888 58.85787964 -219.03884888 58.85787964 C-219.03884888 44.33787964 -219.03884888 29.81787964 -219.03884888 14.85787964 C-200.86399205 14.02635024 -182.69951452 13.57980696 -164.50930786 13.2507019 C-137.90014617 12.87321061 -137.90014617 12.87321061 -111.41384888 10.54537964 C-110.38155151 10.41711792 -109.34925415 10.2888562 -108.28567505 10.15670776 C-100.72509729 9.17703054 -93.2646576 7.85029671 -85.79373169 6.34127808 C-78.51341625 4.88632776 -71.21026926 3.87102052 -63.84671021 2.93869019 C-58.65011256 2.26623293 -53.63819737 1.36956709 -48.53884888 0.17037964 C-32.66806813 -3.09309259 -16.04077288 -1.02397268 0 0 Z " fill="#C1D2D0" transform="translate(219.03884887695313,93.14212036132813)"/>
<path d="M0 0 C0.66 0.66 1.32 1.32 2 2 C0.25 4.0625 0.25 4.0625 -2 6 C-4.25 5.75 -4.25 5.75 -6 5 C-6.33 5.66 -6.66 6.32 -7 7 C-8.64591404 7.50385124 -10.29555284 7.99840064 -11.9609375 8.43359375 C-16.14719765 9.59644379 -20.28323911 11.09112659 -24.125 13.125 C-26.67738476 14.31611289 -29.22476416 14.55596227 -32 15 C-35.57314641 15.92901807 -37.53425904 16.52056078 -40.125 19.1875 C-41.053125 20.0846875 -41.053125 20.0846875 -42 21 C-44 20.625 -44 20.625 -46 20 C-48.21771064 20.85790183 -48.21771064 20.85790183 -50 22 C-50.66 21.34 -51.32 20.68 -52 20 C-49.03 19.01 -46.06 18.02 -43 17 C-43 16.34 -43 15.68 -43 15 C-37.84322279 13.01729887 -32.68368215 11.04203136 -27.52148438 9.07348633 C-25.76713133 8.40330404 -24.01353941 7.73112568 -22.26074219 7.05688477 C-19.73571881 6.08599751 -17.20801137 5.12241053 -14.6796875 4.16015625 C-13.90132538 3.85908463 -13.12296326 3.558013 -12.3210144 3.24781799 C-8.25504012 1.70881429 -4.37718908 0.30083347 0 0 Z " fill="#A9C7C8" transform="translate(535,33)"/>
<path d="M0 0 C1 3 1 3 1 6 C-12 6 -12 6 -15.0625 5.9375 C-17.93459792 5.78892965 -17.93459792 5.78892965 -20 7 C-20 6.01 -20 5.02 -20 4 C-20.66 4 -21.32 4 -22 4 C-22.33 3.01 -22.66 2.02 -23 1 C-18.125 1.875 -18.125 1.875 -17 3 C-14.89360273 2.9618087 -12.78841698 2.84407557 -10.6875 2.6875 C-9.53636719 2.60886719 -8.38523437 2.53023438 -7.19921875 2.44921875 C-4.29806428 2.04185274 -2.47715086 1.49852336 0 0 Z " fill="#A6C5CC" transform="translate(712,81)"/>
<path d="M0 0 C-0.66 0.66 -1.32 1.32 -2 2 C-2.69748583 3.31747324 -3.36959957 4.64914193 -4 6 C-4.66 5.01 -5.32 4.02 -6 3 C-8.10430001 3.64539872 -10.20843554 4.29133376 -12.3125 4.9375 C-14.07013672 5.47697266 -14.07013672 5.47697266 -15.86328125 6.02734375 C-17.91553977 6.66372279 -19.96160137 7.32053379 -22 8 C-23.39439664 8.06665376 -24.79169875 8.08538199 -26.1875 8.0625 C-28.0746875 8.0315625 -28.0746875 8.0315625 -30 8 C-29.67 7.34 -29.34 6.68 -29 6 C-25.91051895 5.35336443 -22.81613929 4.97571651 -19.6875 4.5625 C-18.800625 4.376875 -17.91375 4.19125 -17 4 C-16.67 3.34 -16.34 2.68 -16 2 C-10.5867534 -0.02996747 -5.74116324 -0.23433319 0 0 Z " fill="#98B5BA" transform="translate(435,65)"/>
<path d="M0 0 C0.83917969 0.10828125 0.83917969 0.10828125 1.6953125 0.21875 C13.83282187 1.62373501 25.86067864 1.03313373 38 0 C33.18710837 4.81289163 23.76406326 3.43688298 17.375 3.6875 C15.51488281 3.77741211 15.51488281 3.77741211 13.6171875 3.86914062 C12.43125 3.91619141 11.2453125 3.96324219 10.0234375 4.01171875 C8.93981934 4.05772217 7.85620117 4.10372559 6.73974609 4.15112305 C4 4 4 4 1 2 C0.67 1.34 0.34 0.68 0 0 Z " fill="#C9D4CD" transform="translate(890,83)"/>
<path d="M0 0 C-1.4562545 0.67119549 -2.91507867 1.33681807 -4.375 2 C-5.18710937 2.37125 -5.99921875 2.7425 -6.8359375 3.125 C-9 4 -9 4 -11 4 C-11 4.66 -11 5.32 -11 6 C-13.75 8.6875 -13.75 8.6875 -17 11 C-19.125 10.6875 -19.125 10.6875 -21 10 C-23.21771064 10.85790183 -23.21771064 10.85790183 -25 12 C-25.66 11.34 -26.32 10.68 -27 10 C-24.03 9.01 -21.06 8.02 -18 7 C-18 6.34 -18 5.68 -18 5 C-15.37831689 3.96983978 -12.75326119 2.95061606 -10.125 1.9375 C-9.37863281 1.64294922 -8.63226563 1.34839844 -7.86328125 1.04492188 C-2.2265625 -1.11328125 -2.2265625 -1.11328125 0 0 Z " fill="#ADC6C9" transform="translate(510,43)"/>
<path d="M0 0 C-3 2 -3 2 -6.125 3 C-9.12511062 3.6686673 -9.12511062 3.6686673 -10 6 C-10.66 6 -11.32 6 -12 6 C-12 5.34 -12 4.68 -12 4 C-13.051875 4.515625 -14.10375 5.03125 -15.1875 5.5625 C-18.48523767 6.99688183 -20.5064368 7.16452107 -24 6 C-23.34 5.67 -22.68 5.34 -22 5 C-22 4.34 -22 3.68 -22 3 C-14.73054552 1.01742151 -7.56592083 -0.24406196 0 0 Z " fill="#A7BEC0" transform="translate(298,88)"/>
<path d="M0 0 C-0.99 0.66 -1.98 1.32 -3 2 C-4.78029585 3.59822014 -6.53493198 5.22021043 -8.28125 6.85546875 C-8.8484375 7.23316406 -9.415625 7.61085938 -10 8 C-10.99 7.67 -11.98 7.34 -13 7 C-13 7.66 -13 8.32 -13 9 C-14.65 8.67 -16.3 8.34 -18 8 C-16.2576496 3.81131923 -14.23836868 2.62366737 -10.2421875 0.75 C-6.70910361 -0.43179809 -3.69781089 -0.26412935 0 0 Z " fill="#97B6BD" transform="translate(480,55)"/>
<path d="M0 0 C2.27203802 0.2821289 4.54261684 0.57602856 6.8125 0.875 C8.70935547 1.11863281 8.70935547 1.11863281 10.64453125 1.3671875 C14 2 14 2 17 4 C17 4.66 17 5.32 17 6 C3.625 6 3.625 6 0 4 C0 2.68 0 1.36 0 0 Z " fill="#8FB0B7" transform="translate(644,65)"/>
<path d="M0 0 C0 0.66 0 1.32 0 2 C0.66 2 1.32 2 2 2 C2 2.66 2 3.32 2 4 C1.01 4.33 0.02 4.66 -1 5 C-2.20882096 7.00016466 -2.20882096 7.00016466 -3 9 C-3 7.02 -3 5.04 -3 3 C-3.70125 3.474375 -4.4025 3.94875 -5.125 4.4375 C-8.16081337 6.08739857 -10.59168786 6.60368464 -14 7 C-13.9375 5.1875 -13.9375 5.1875 -13 3 C-8.47170884 0.51387936 -5.23158464 -0.38279888 0 0 Z " fill="#99B9C0" transform="translate(552,27)"/>
<path d="M0 0 C-1.125 2.5 -1.125 2.5 -3 5 C-6.15989415 5.38692581 -8.13879744 5.43060128 -11 4 C-11 4.66 -11 5.32 -11 6 C-12.32 5.34 -13.64 4.68 -15 4 C-14.01 3.67 -13.02 3.34 -12 3 C-12 2.34 -12 1.68 -12 1 C-8.0186217 -0.3271261 -4.14954773 -0.06915913 0 0 Z " fill="#ADC1C6" transform="translate(323,81)"/>
<path d="M0 0 C0 1.65 0 3.3 0 5 C-4.625 7.125 -4.625 7.125 -8 6 C-8 5.34 -8 4.68 -8 4 C-8.66 4 -9.32 4 -10 4 C-10 3.34 -10 2.68 -10 2 C-3.375 -1.125 -3.375 -1.125 0 0 Z " fill="#8BB0BF" transform="translate(613,56)"/>
<path d="M0 0 C-1.45255699 3.82946843 -3.42895561 5.12050295 -7 7 C-7 6.34 -7 5.68 -7 5 C-8.98 5.33 -10.96 5.66 -13 6 C-13.33 5.01 -13.66 4.02 -14 3 C-12.4188708 2.49307308 -10.83498617 1.99473557 -9.25 1.5 C-7.92742187 1.08234375 -7.92742187 1.08234375 -6.578125 0.65625 C-4 0 -4 0 0 0 Z " fill="#AFC2C3" transform="translate(395,73)"/>
<path d="M0 0 C-3.49616455 1.04884937 -6.75921121 1.96432759 -10.375 2.5 C-11.674375 2.7475 -11.674375 2.7475 -13 3 C-13.33 3.66 -13.66 4.32 -14 5 C-21.41176471 6.29411765 -21.41176471 6.29411765 -24 5 C-24 4.34 -24 3.68 -24 3 C-20.75290806 2.29825244 -17.50199748 1.61611931 -14.25 0.9375 C-13.32960938 0.73833984 -12.40921875 0.53917969 -11.4609375 0.33398438 C-10.57148438 0.15029297 -9.68203125 -0.03339844 -8.765625 -0.22265625 C-7.94868164 -0.39547119 -7.13173828 -0.56828613 -6.29003906 -0.74633789 C-3.89799506 -1.01129884 -2.27474929 -0.73312703 0 0 Z " fill="#B0C5C6" transform="translate(419,69)"/>
<path d="M0 0 C-2.48503465 2.48503465 -4.67561404 2.93619649 -8 4 C-8.99 4.5259375 -8.99 4.5259375 -10 5.0625 C-12.61013084 6.28599883 -15.15959426 6.57696085 -18 7 C-18.99 7.33 -19.98 7.66 -21 8 C-21.33 7.34 -21.66 6.68 -22 6 C-20.25197854 5.18325204 -18.50149811 4.37176549 -16.75 3.5625 C-15.77546875 3.11003906 -14.8009375 2.65757813 -13.796875 2.19140625 C-9.00014409 0.14810607 -5.23403025 -0.10065443 0 0 Z " fill="#85ACB4" transform="translate(521,41)"/>
<path d="M0 0 C6.6 0 13.2 0 20 0 C15.54545455 3.34090909 15.54545455 3.34090909 11 3 C9.68 3 8.36 3 7 3 C4.66666667 3 2.33333333 3 0 3 C0 2.01 0 1.02 0 0 Z " fill="#C8D0C8" transform="translate(72,107)"/>
<path d="M0 0 C1.43739513 -0.02712066 2.87493863 -0.04645067 4.3125 -0.0625 C5.51326172 -0.07990234 5.51326172 -0.07990234 6.73828125 -0.09765625 C9 0 9 0 12 1 C11.67 1.99 11.34 2.98 11 4 C8.23735711 4.59732819 5.83967231 5 3 5 C2.67 4.01 2.34 3.02 2 2 C1.34 2 0.68 2 0 2 C0 1.34 0 0.68 0 0 Z " fill="#9FBABC" transform="translate(622,59)"/>
<path d="M0 0 C0.66 0.66 1.32 1.32 2 2 C0.25 4.0625 0.25 4.0625 -2 6 C-4.25 5.75 -4.25 5.75 -6 5 C-6.33 5.66 -6.66 6.32 -7 7 C-7.99 6.67 -8.98 6.34 -10 6 C-7.27521226 2.63408573 -3.93143208 1.55773724 0 0 Z " fill="#83ACB4" transform="translate(535,33)"/>
<path d="M0 0 C4.875 0.875 4.875 0.875 6 2 C7.66617115 2.04063832 9.33388095 2.042721 11 2 C11 2.99 11 3.98 11 5 C10.05125 4.979375 9.1025 4.95875 8.125 4.9375 C5.09333717 4.77448174 5.09333717 4.77448174 3 6 C3 5.01 3 4.02 3 3 C2.34 3 1.68 3 1 3 C0.67 2.01 0.34 1.02 0 0 Z " fill="#93B4BC" transform="translate(689,82)"/>
<path d="M0 0 C0.66 -0.33 1.32 -0.66 2 -1 C1.34 0.32 0.68 1.64 0 3 C-0.7425 2.79375 -1.485 2.5875 -2.25 2.375 C-5.32330841 1.95591249 -6.42786866 2.38050989 -9 4 C-9.66 3.34 -10.32 2.68 -11 2 C-3.86359833 -1.43096234 -3.86359833 -1.43096234 0 0 Z " fill="#88ADB6" transform="translate(494,51)"/>
<path d="M0 0 C4.54805635 -0.17835515 7.8794254 0.00214565 12 2 C12 2.66 12 3.32 12 4 C8.875 3.47916667 5.75 2.95833333 2.625 2.4375 C1.75875 2.293125 0.8925 2.14875 0 2 C0 1.34 0 0.68 0 0 Z " fill="#A3BBBD" transform="translate(676,77)"/>
<path d="M0 0 C-2.87164566 2.70272533 -4.30991841 3.94791837 -8.3125 4.25 C-9.199375 4.1675 -10.08625 4.085 -11 4 C-11.33 3.34 -11.66 2.68 -12 2 C-7.82262526 0.40861915 -4.46839215 -0.21278058 0 0 Z " fill="#B1C4C6" transform="translate(776,68)"/>
<path d="M0 0 C1.58467728 0.28427417 3.1677057 0.57774818 4.75 0.875 C6.07257812 1.11863281 6.07257812 1.11863281 7.421875 1.3671875 C9.86947744 1.96796264 11.80599857 2.77997117 14 4 C12.56260487 4.02712066 11.12506137 4.04645067 9.6875 4.0625 C8.48673828 4.07990234 8.48673828 4.07990234 7.26171875 4.09765625 C5 4 5 4 2 3 C2 2.34 2 1.68 2 1 C1.34 0.67 0.68 0.34 0 0 Z " fill="#CED6C9" transform="translate(942,84)"/>
<path d="M0 0 C0 1.32 0 2.64 0 4 C-4.75 3.25 -4.75 3.25 -7 1 C-3.375 -1.125 -3.375 -1.125 0 0 Z " fill="#95B9C5" transform="translate(613,56)"/>
<path d="M0 0 C6.75 0.875 6.75 0.875 9 2 C8.67 2.99 8.34 3.98 8 5 C4.5625 4.1875 4.5625 4.1875 1 3 C0.67 2.01 0.34 1.02 0 0 Z " fill="#ABBFBF" transform="translate(588,45)"/>
<path d="M0 0 C-3.32307692 3.93846154 -3.32307692 3.93846154 -6.75 4.25 C-7.4925 4.1675 -8.235 4.085 -9 4 C-9 3.34 -9 2.68 -9 2 C-8.01 2 -7.02 2 -6 2 C-6 1.34 -6 0.68 -6 0 C-3 -1 -3 -1 0 0 Z " fill="#94B5C0" transform="translate(323,82)"/>
<path d="M0 0 C0 0.66 0 1.32 0 2 C-1.98 2.99 -1.98 2.99 -4 4 C-4 3.34 -4 2.68 -4 2 C-5.98 2.33 -7.96 2.66 -10 3 C-10.33 2.34 -10.66 1.68 -11 1 C-7.27569643 0.30710631 -3.78916254 -0.11144596 0 0 Z " fill="#90B2BC" transform="translate(392,76)"/>
<path d="M0 0 C3.68754757 0.49831724 5.60490662 1.10067643 8 4 C4.98968256 4.93423645 4.13349732 5.04449911 1 4 C0.3125 1.9375 0.3125 1.9375 0 0 Z " fill="#8EB0B8" transform="translate(667,73)"/>
<path d="M0 0 C3.68266103 0.59950296 7.34543185 1.24758891 11 2 C9.1875 3.0625 9.1875 3.0625 7 4 C6.01 3.67 5.02 3.34 4 3 C3.01 3.495 3.01 3.495 2 4 C2 3.01 2 2.02 2 1 C1.34 0.67 0.68 0.34 0 0 Z " fill="#84B0BD" transform="translate(622,60)"/>
<path d="M0 0 C1.98 0 3.96 0 6 0 C5.67 0.99 5.34 1.98 5 3 C3.02 3.33 1.04 3.66 -1 4 C-0.67 2.68 -0.34 1.36 0 0 Z " fill="#ADC4C3" transform="translate(723,75)"/>
</svg>
